:SAMPLES-PER-SECOND 30
:FULLY-SPECIFIED
:DEGREES
265
root  -2.28845 40.8227 0.348003 -2.11993 -72.0309 1.88768
RightUpLeg  2.0326 -4.83591 -3.09245
RightLeg  3.72524 -31.7747 0.333472
RightFoot  -2.41866 -0.358372 4.37886
RightToes  -3.13006e-008 1.75238e-005 3.56266e-009
Spine  1.47156 2.68164 -1.22124
Spine1  9.19168 1.14446 6.68598
HEad  7.76589 -20.425 3.54334
LeftShoulder1  0.894731 -1.56022 -10.3845
LeftArm  -69.9346 -41.3735 -8.23739
LeftForeArm  137.377 -74.5407 -139.521
LeftHand  -0.937311 -2.07063 14.7483
RightShoulder  2.04908 4.94377 17.7127
RightArm  -90.4467 26.1661 14.557
RightForeArm  27.597 77.6067 74.9472
RightHand  -3.05734 7.95726 -26.4403
LeftUpLeg  -2.41175 -0.752874 0.560989
LeftLeg  3.3585 -1.71586 -0.171043
LeftFoot  -0.247476 0.14861 -1.51592
LeftToes  4.78685e-008 1.46778e-008 1.34523e-009
266
root  -1.92308 40.8235 0.298999 -1.86889 -71.1036 2.64002
RightUpLeg  0.264966 -5.22393 -3.5091
RightLeg  4.31376 -32.3731 0.270179
RightFoot  -2.12057 -0.350759 4.1684
RightToes  -3.13006e-008 1.75238e-005 3.56266e-009
Spine  2.91904 3.21481 0.733427
Spine1  9.44321 1.79152 6.21641
HEad  6.06947 -21.5121 2.28947
LeftShoulder1  0.900368 -1.58128 -10.4276
LeftArm  -71.6967 -39.5209 -7.58172
LeftForeArm  139.999 -73.807 -141.872
LeftHand  -0.889601 -1.79386 14.5136
RightShoulder  2.18797 5.45401 17.8932
RightArm  -88.5912 26.9068 15.2118
RightForeArm  6.33639 76.2503 62.0171
RightHand  -3.05658 7.43947 -27.4607
LeftUpLeg  -3.9009 -1.454 0.110773
LeftLeg  2.77192 -1.87924 -0.128809
LeftFoot  0.906034 0.14558 -1.4096
LeftToes  4.78685e-008 1.46778e-008 1.34523e-009
267
root  -1.57218 40.8181 0.222795 -1.43749 -69.8306 3.24439
RightUpLeg  -1.39696 -5.65428 -3.88598
RightLeg  4.73535 -33.2611 0.306658
RightFoot  -1.81396 -0.338444 3.90894
RightToes  -3.13006e-008 1.75238e-005 3.56266e-009
Spine  4.2822 3.45616 2.75117
Spine1  9.65725 2.24636 5.51855
HEad  4.04097 -22.7165 2.12217
LeftShoulder1  0.893606 -1.61183 -10.1638
LeftArm  -72.9573 -37.3493 -6.98683
LeftForeArm  141.357 -73.0655 -143.812
LeftHand  -0.798782 -1.56476 13.4931
RightShoulder  2.22778 5.58012 17.9965
RightArm  -84.9305 28.6311 15.804
RightForeArm  -12.392 74.4206 52.0506
RightHand  -2.7394 5.80005 -28.1738
LeftUpLeg  -5.40461 -1.91617 -0.153542
LeftLeg  2.09171 -2.58377 -0.347358
LeftFoot  2.06811 0.146663 -1.35244
LeftToes  4.78685e-008 1.46778e-008 1.34523e-009
268
root  -1.24619 40.8113 0.122127 -1.18497 -68.7853 3.92301
RightUpLeg  -3.02384 -5.88753 -4.15929
RightLeg  5.37243 -34.097 -0.00354235
RightFoot  -1.58851 -0.340831 3.86783
RightToes  -3.13006e-008 1.75238e-005 3.56266e-009
Spine  5.5749 3.75366 4.26184
Spine1  9.5118 2.72325 5.13473
HEad  2.72036 -23.982 2.02187
LeftShoulder1  0.878028 -1.64017 -9.71839
LeftArm  -73.2164 -35.4058 -7.17575
LeftForeArm  142.965 -72.6015 -145.062
LeftHand  -0.827028 -1.48759 14.1054
RightShoulder  2.3586 6.16643 17.8493
RightArm  -80.1361 30.1076 15.3154
RightForeArm  -30.5423 71.5388 41.7172
RightHand  -2.51524 4.89314 -28.1614
LeftUpLeg  -6.62704 -2.37639 -0.402413
LeftLeg  1.21954 -2.98909 -0.487471
LeftFoot  3.25428 0.178073 -1.54396
LeftToes  4.78685e-008 1.46778e-008 1.34523e-009
269
root  -0.981502 40.8085 0.0214822 -0.905539 -67.7849 4.38691
RightUpLeg  -4.20151 -6.10271 -4.38382
RightLeg  5.64117 -34.8549 -0.0790129
RightFoot  -1.34124 -0.331388 3.68868
RightToes  -3.13006e-008 1.75238e-005 3.56266e-009
Spine  6.26622 4.14118 6.003
Spine1  10.1125 3.34935 4.50011
HEad  1.80402 -25.5615 2.28817
LeftShoulder1  0.911345 -1.78265 -9.9151
LeftArm  -73.5578 -34.6074 -6.68923
LeftForeArm  143.944 -72.3009 -145.818
LeftHand  -0.848145 -1.64045 14.1543
RightShoulder  2.26952 6.11931 16.9717
RightArm  -74.2738 32.0088 15.2398
RightForeArm  -43.6246 68.0337 33.7342
RightHand  -2.51075 5.94794 -25.5839
LeftUpLeg  -7.50267 -2.75761 -0.602415
LeftLeg  0.236905 -3.49271 -0.554545
LeftFoot  4.42387 0.207996 -1.6983
LeftToes  4.78685e-008 1.46778e-008 1.34523e-009
270
root  -0.754252 40.7985 -0.10497 -0.419624 -66.909 4.36043
RightUpLeg  -5.12073 -6.10106 -4.32825
RightLeg  5.99718 -35.6662 -0.310325
RightFoot  -1.11782 -0.313263 3.41277
RightToes  -3.13006e-008 1.75238e-005 3.56266e-009
Spine  7.60514 4.49712 7.65808
Spine1  9.67458 4.05849 3.77225
HEad  1.85273 -27.1257 2.30459
LeftShoulder1  0.960881 -2.15903 -9.60766
LeftArm  -73.2228 -34.0342 -7.08578
LeftForeArm  145.521 -71.719 -147.177
LeftHand  -0.851877 -1.69999 14.0784
RightShoulder  2.24198 6.18247 16.4972
RightArm  -67.8531 34.1495 14.2657
RightForeArm  -55.6562 63.8496 27.3536
RightHand  -2.31112 4.72465 -26.3589
LeftUpLeg  -8.2697 -2.93982 -0.583204
LeftLeg  -0.288127 -4.08007 -0.595505
LeftFoot  5.2359 0.233823 -1.82182
LeftToes  4.78685e-008 1.46778e-008 1.34523e-009
271
root  -0.564174 40.7754 -0.228316 -0.330558 -66.2027 4.66481
RightUpLeg  -6.1809 -6.23357 -4.40143
RightLeg  7.00186 -36.1801 -0.905696
RightFoot  -1.16169 -0.299193 3.26809
RightToes  -3.13006e-008 1.75238e-005 3.56266e-009
Spine  8.34212 4.82578 8.91599
Spine1  9.83037 4.66251 3.20221
HEad  1.58173 -28.0795 2.54523
LeftShoulder1  0.970522 -2.18163 -9.72343
LeftArm  -73.2046 -34.0223 -7.21356
LeftForeArm  145.743 -71.453 -147.691
LeftHand  -0.687775 -1.98845 11.0187
RightShoulder  2.19883 6.38699 15.4871
RightArm  -64.6654 36.9493 14.0615
RightForeArm  -66.7812 60.0128 23.1372
RightHand  -1.94984 3.04591 -26.5941
LeftUpLeg  -8.95302 -3.16842 -0.666592
LeftLeg  -0.610248 -4.44397 -0.634089
LeftFoot  5.81167 0.294258 -2.18723
LeftToes  4.78685e-008 1.46778e-008 1.34523e-009
272
root  -0.436002 40.7506 -0.354699 -0.498789 -65.6078 5.01604
RightUpLeg  -6.9511 -6.3596 -4.46179
RightLeg  8.07568 -36.534 -1.59305
RightFoot  -1.31516 -0.28752 3.17412
RightToes  -3.13006e-008 1.75238e-005 3.56266e-009
Spine  9.2042 5.21293 10.3729
Spine1  9.75079 5.54943 1.97938
HEad  1.06996 -28.7751 3.09204
LeftShoulder1  0.997396 -2.31839 -9.79226
LeftArm  -72.6718 -34.9967 -7.77191
LeftForeArm  146.095 -71.3065 -148.003
LeftHand  -0.662301 -2.22349 10.297
RightShoulder  2.11969 6.42591 14.5237
RightArm  -63.2238 39.1143 15.1514
RightForeArm  -70.9812 57.3069 20.8178
RightHand  -2.18814 3.69388 -27.7154
LeftUpLeg  -9.38789 -3.31311 -0.752221
LeftLeg  -0.73688 -4.75297 -0.699537
LeftFoot  6.20412 0.310328 -2.25547
LeftToes  4.78685e-008 1.46778e-008 1.34523e-009
273
root  -0.373174 40.7248 -0.467712 -0.712168 -64.8575 5.23205
RightUpLeg  -7.33113 -6.63292 -4.56331
RightLeg  9.0168 -36.9152 -2.07416
RightFoot  -1.57782 -0.284682 3.20497
RightToes  -3.13006e-008 1.75238e-005 3.56266e-009
Spine  9.38108 5.4695 10.9587
Spine1  10.192 5.9623 1.66722
HEad  0.453015 -28.6297 3.45693
LeftShoulder1  1.00273 -2.30103 -9.94982
LeftArm  -72.307 -35.6776 -8.07482
LeftForeArm  147.056 -71.2986 -148.158
LeftHand  -0.693968 -2.3317 10.6244
RightShoulder  2.15694 6.81691 14.0219
RightArm  -63.8028 40.9562 15.9309
RightForeArm  -67.7213 55.179 19.2924
RightHand  -2.22958 3.91061 -27.574
LeftUpLeg  -9.71157 -3.57531 -0.876302
LeftLeg  -0.515583 -5.18938 -0.601862
LeftFoot  6.27222 0.364429 -2.59894
LeftToes  4.78685e-008 1.46778e-008 1.34523e-009
274
root  -0.377821 40.7065 -0.5634 -0.681972 -63.9286 5.06216
RightUpLeg  -7.32395 -6.74605 -4.49019
RightLeg  9.65316 -37.6032 -2.47174
RightFoot  -1.78274 -0.274948 3.14284
RightToes  -3.13006e-008 1.75238e-005 3.56266e-009
Spine  9.65269 5.52489 11.239
Spine1  9.79108 6.18158 1.22517
HEad  0.297146 -27.6926 3.97326
LeftShoulder1  1.0397 -2.52692 -9.91503
LeftArm  -71.6972 -36.8023 -8.41355
LeftForeArm  146.677 -71.2123 -148.253
LeftHand  -0.754002 -2.35209 11.5045
RightShoulder  2.25952 7.07232 14.5323
RightArm  -64.2638 41.7031 16.6781
RightForeArm  -63.8171 54.4124 18.7946
RightHand  -2.39269 4.44301 -27.9824
LeftUpLeg  -9.89643 -3.64223 -0.878574
LeftLeg  -0.119312 -5.99425 -0.559729
LeftFoot  6.20725 0.370594 -2.64604
LeftToes  4.78685e-008 1.46778e-008 1.34523e-009
